<svg width="30" height="30" viewBox="0 0 30 30" fill="none" xmlns="http://www.w3.org/2000/svg">
<path d="M6.25155 9.00009C6.25155 8.27074 6.54128 7.57127 7.05701 7.05554C7.57273 6.53982 8.27221 6.25009 9.00155 6.25009H10.2516C10.9777 6.24967 11.6742 5.96209 12.1891 5.45009L13.0641 4.57509C13.3196 4.31809 13.6235 4.11414 13.9581 3.97497C14.2928 3.8358 14.6516 3.76416 15.0141 3.76416C15.3765 3.76416 15.7353 3.8358 16.07 3.97497C16.4047 4.11414 16.7085 4.31809 16.9641 4.57509L17.8391 5.45009C18.3541 5.96259 19.0516 6.25009 19.7766 6.25009H21.0266C21.7559 6.25009 22.4554 6.53982 22.9711 7.05554C23.4868 7.57127 23.7766 8.27074 23.7766 9.00009V10.2501C23.7766 10.9751 24.0641 11.6726 24.5766 12.1876L25.4516 13.0626C25.7086 13.3181 25.9125 13.622 26.0517 13.9566C26.1908 14.2913 26.2625 14.6502 26.2625 15.0126C26.2625 15.375 26.1908 15.7339 26.0517 16.0685C25.9125 16.4032 25.7086 16.707 25.4516 16.9626L24.5766 17.8376C24.0646 18.3525 23.777 19.049 23.7766 19.7751V21.0251C23.7766 21.7544 23.4868 22.4539 22.9711 22.9696C22.4554 23.4854 21.7559 23.7751 21.0266 23.7751H19.7766C19.0504 23.7755 18.3539 24.0631 17.8391 24.5751L16.9641 25.4501C16.7085 25.7071 16.4047 25.911 16.07 26.0502C15.7353 26.1894 15.3765 26.261 15.0141 26.261C14.6516 26.261 14.2928 26.1894 13.9581 26.0502C13.6235 25.911 13.3196 25.7071 13.0641 25.4501L12.1891 24.5751C11.6742 24.0631 10.9777 23.7755 10.2516 23.7751H9.00155C8.27221 23.7751 7.57273 23.4854 7.05701 22.9696C6.54128 22.4539 6.25155 21.7544 6.25155 21.0251V19.7751C6.25114 19.049 5.96356 18.3525 5.45155 17.8376L4.57655 16.9626C4.31955 16.707 4.11561 16.4032 3.97644 16.0685C3.83727 15.7339 3.76562 15.375 3.76562 15.0126C3.76563 14.6502 3.83727 14.2913 3.97644 13.9566C4.11561 13.622 4.31955 13.3181 4.57655 13.0626L5.45155 12.1876C5.96356 11.6727 6.25114 10.9762 6.25155 10.2501V9.00009Z" fill="#BF6F11"/>
<path d="M11.25 15L13.75 17.5L18.75 12.5" stroke="white" stroke-width="2" stroke-linecap="round" stroke-linejoin="round"/>
</svg>
