<svg width="44" height="44" viewBox="0 0 44 44" fill="none" xmlns="http://www.w3.org/2000/svg">
<rect width="43.2" height="43.2" rx="21.6" fill="#3C84D9"/>
<path d="M23.5 31.3899H18.5C15.8478 31.3899 13.3043 30.3363 11.4289 28.461C9.55357 26.5856 8.5 24.0421 8.5 21.3899V15.1399H13.5V21.3899C13.5 22.716 14.0268 23.9877 14.9645 24.9254C15.9021 25.8631 17.1739 26.3899 18.5 26.3899V15.1399H23.5V20.7649H23.5375C24.9075 20.5939 26.1679 19.9285 27.0818 18.8935C27.9956 17.8586 28.5 16.5255 28.5 15.1449H33.5L33.0725 17.2836C32.8165 18.5637 32.2714 19.7685 31.479 20.8059C30.6866 21.8434 29.6677 22.6861 28.5 23.2699C29.6354 23.6482 30.6483 24.3248 31.4325 25.2288C32.2167 26.1329 32.7434 27.2312 32.9575 28.4086L33.5 31.3949H28.5C28.5 30.0142 27.9956 28.6812 27.0818 27.6462C26.1679 26.6113 24.9075 25.9458 23.5375 25.7749V31.3999L23.5 31.3899Z" stroke="white" stroke-width="2" stroke-linecap="round" stroke-linejoin="round"/>
</svg>
