<svg width="42" height="44" viewBox="0 0 42 44" fill="none" xmlns="http://www.w3.org/2000/svg">
<rect y="0.639893" width="42" height="43" rx="21" fill="#28A71A"/>
<path d="M11.25 31.3899L13.0375 27.2733C11.67 25.332 11.0579 22.9584 11.3161 20.5979C11.5744 18.2374 12.6852 16.0522 14.4401 14.4526C16.195 12.8529 18.4734 11.9487 20.8477 11.9095C23.2219 11.8704 25.5289 12.6991 27.3355 14.2401C29.1422 15.7811 30.3244 17.9284 30.6603 20.2791C30.9962 22.6298 30.4626 25.0223 29.1598 27.0076C27.857 28.9929 25.8744 30.4344 23.5842 31.0618C21.294 31.6891 18.8535 31.4591 16.7208 30.4149L11.25 31.3899Z" stroke="white" stroke-width="2" stroke-linecap="round" stroke-linejoin="round"/>
<path d="M17.75 19.4733C17.75 19.6169 17.8071 19.7547 17.9087 19.8563C18.0102 19.9579 18.148 20.0149 18.2917 20.0149C18.4353 20.0149 18.5731 19.9579 18.6747 19.8563C18.7763 19.7547 18.8333 19.6169 18.8333 19.4733V18.3899C18.8333 18.2463 18.7763 18.1085 18.6747 18.0069C18.5731 17.9053 18.4353 17.8483 18.2917 17.8483C18.148 17.8483 18.0102 17.9053 17.9087 18.0069C17.8071 18.1085 17.75 18.2463 17.75 18.3899V19.4733ZM17.75 19.4733C17.75 20.9099 18.3207 22.2876 19.3365 23.3034C20.3523 24.3192 21.7301 24.8899 23.1667 24.8899M23.1667 24.8899H24.25C24.3937 24.8899 24.5314 24.8329 24.633 24.7313C24.7346 24.6297 24.7917 24.4919 24.7917 24.3483C24.7917 24.2046 24.7346 24.0668 24.633 23.9652C24.5314 23.8637 24.3937 23.8066 24.25 23.8066H23.1667C23.023 23.8066 22.8852 23.8637 22.7836 23.9652C22.6821 24.0668 22.625 24.2046 22.625 24.3483C22.625 24.4919 22.6821 24.6297 22.7836 24.7313C22.8852 24.8329 23.023 24.8899 23.1667 24.8899Z" stroke="white" stroke-width="2" stroke-linecap="round" stroke-linejoin="round"/>
</svg>
