<svg width="164" height="58" viewBox="0 0 164 58" fill="none" xmlns="http://www.w3.org/2000/svg">
<g clip-path="url(#clip0_1845_1246)">
<path fill-rule="evenodd" clip-rule="evenodd" d="M65.6544 26.4921V32.6817H61.6287L61.4915 32.1483C61.2642 31.2643 60.8738 30.2998 60.1654 29.6938C59.5141 29.1365 58.69 28.9546 57.8526 28.9546C56.0135 28.9546 54.5803 29.6349 53.5723 31.1997C52.289 33.192 52.0291 36.1223 52.0291 38.4342C52.0291 40.5838 52.2667 43.3017 53.4315 45.1682C54.323 46.5964 55.5925 47.2483 57.2607 47.2483C57.9562 47.2483 58.7608 47.1795 59.4041 46.8926C59.898 46.6723 60.2984 46.3483 60.6028 45.8985C61.0133 45.292 61.2829 44.4776 61.4724 43.7747L61.6141 43.2493H65.6542V49.6799L65.0836 49.7929C63.71 50.065 62.3221 50.2969 60.93 50.4502C59.6242 50.5939 58.3094 50.6571 56.9961 50.6571C54.5849 50.6571 51.9717 50.3606 49.7674 49.3161C47.8759 48.4197 46.419 47.0408 45.4816 45.1533C44.4477 43.0718 44.1328 40.633 44.1328 38.3302C44.1328 35.9743 44.5756 33.6596 45.7184 31.5844C46.8126 29.5971 48.4179 28.1166 50.4336 27.0975C52.691 25.9562 55.2199 25.546 57.7271 25.546C58.9969 25.546 60.2739 25.595 61.5366 25.7355C62.7382 25.8694 63.9311 26.0863 65.1081 26.3634L65.6542 26.4921H65.6544ZM94.1493 37.4059C95.235 37.8305 96.2728 38.4052 97.1086 39.1944C98.2273 40.2507 98.8357 41.5623 98.8357 43.1106C98.8357 44.2619 98.613 45.3891 98.0593 46.4045C97.5136 47.4052 96.6953 48.173 95.7173 48.7394C94.6354 49.3659 93.4357 49.7603 92.2144 50.0016C90.6191 50.3165 88.8968 50.3854 87.2743 50.3854H74.0001V47.9879L74.5512 47.8624C74.8985 47.7834 75.2922 47.6865 75.6186 47.5411C75.7474 47.4836 75.8727 47.4032 75.9472 47.2795L75.9554 47.2661C76.0592 47.1019 76.1061 46.8755 76.1284 46.6851C76.1771 46.2697 76.1862 45.8379 76.1862 45.4201V30.8013C76.1862 30.3799 76.1745 29.9531 76.1337 29.5335L76.1325 29.5189C76.1178 29.327 76.0773 29.1227 75.9743 28.9576C75.8926 28.8267 75.7542 28.7361 75.6186 28.6703C75.3025 28.517 74.8965 28.418 74.5551 28.3423L74.0001 28.2193V25.8183H88.0679C89.3292 25.8183 90.6376 25.8478 91.8897 26.0094C93.093 26.1647 94.3012 26.4492 95.4137 26.9441C96.3301 27.3517 97.1146 27.9551 97.6868 28.7873C98.2727 29.6397 98.5295 30.6202 98.5295 31.6519C98.5295 34.5244 96.5032 36.2936 94.1495 37.4061L94.1493 37.4059ZM117.201 29.2267V36.269H119.711C121.528 36.269 121.273 36.3444 121.757 34.7479H123.92V40.558H121.753C121.285 38.9717 121.537 39.0197 119.712 39.0197H117.202V46.9764H120.922C123.13 46.9764 124.277 46.9874 124.99 44.9056H129.047L128.702 50.3852H107.279V47.9877L107.83 47.8622C108.178 47.7832 108.571 47.6863 108.898 47.5409C109.027 47.4834 109.152 47.403 109.226 47.2793L109.234 47.2659C109.338 47.1017 109.385 46.8751 109.407 46.6847C109.456 46.2695 109.465 45.8375 109.465 45.4197V30.8009C109.465 30.3797 109.453 29.9527 109.413 29.5331L109.412 29.5185C109.397 29.3266 109.357 29.1223 109.253 28.9572C109.172 28.8263 109.033 28.7357 108.898 28.6699C108.582 28.5166 108.176 28.4176 107.834 28.3419L107.279 28.2189V25.8179H128.933V30.7929H124.956C124.664 29.2267 123.011 29.2267 120.943 29.2267H117.202H117.201ZM145.724 29.2267H144.781C144.285 29.2267 143.613 29.2489 143.143 29.4212C142.812 29.5421 142.523 29.7288 142.281 29.9867C141.984 30.3042 141.762 30.7246 141.6 31.1262C141.396 31.6335 141.204 32.1507 141.053 32.6767L140.906 33.191H136.868V25.8179H162.295V33.191H158.281L158.119 32.7066C157.935 32.1571 157.745 31.5926 157.524 31.0574C157.412 30.7873 157.277 30.5161 157.111 30.2828C156.978 30.1037 156.823 29.9221 156.647 29.7756C156.499 29.6527 156.339 29.5461 156.163 29.4694C155.952 29.378 155.701 29.328 155.476 29.2942C155.07 29.2335 154.631 29.2267 154.222 29.2267H153.46V45.4197C153.46 45.8281 153.462 46.2789 153.517 46.6839C153.536 46.8289 153.573 47.049 153.648 47.1773C153.703 47.2711 153.773 47.366 153.86 47.4318C153.987 47.5273 154.176 47.6009 154.324 47.6529C154.625 47.7592 154.993 47.8114 155.309 47.8494L155.932 47.9244V50.385H143.252V47.9378L143.861 47.8514C144.251 47.796 144.693 47.7177 145.062 47.5741C145.211 47.5162 145.385 47.4248 145.477 47.2881L145.485 47.2763C145.598 47.1159 145.645 46.8898 145.666 46.6985C145.714 46.2777 145.724 45.8425 145.724 45.4193V29.2263L145.724 29.2267ZM83.9227 29.2726V35.9575H85.9307C86.8528 35.9575 87.9986 35.8868 88.8582 35.5217C89.4431 35.2731 89.9507 34.9148 90.3078 34.3799C90.6988 33.7943 90.7863 32.9639 90.7863 32.2768C90.7863 31.6623 90.6843 30.9868 90.2929 30.4921C89.9102 30.0087 89.3682 29.723 88.7873 29.5509C87.9071 29.29 86.8993 29.2267 85.9862 29.2267C85.2981 29.2267 84.61 29.2423 83.9225 29.2726H83.9227ZM83.9227 46.9496C84.6104 46.9698 85.2989 46.9764 85.9864 46.9764C86.9548 46.9764 88.0399 46.9062 88.9686 46.6104C89.6165 46.4039 90.1585 46.0526 90.5539 45.4893C91.005 44.8466 91.1136 43.9462 91.1136 43.18C91.1136 42.5739 91.0458 41.926 90.808 41.3636C90.6163 40.9102 90.3352 40.544 89.9384 40.2563C89.4871 39.9289 88.97 39.7202 88.4314 39.5894C87.6749 39.4055 86.8248 39.3663 86.0492 39.3663H83.9229V46.9496H83.9227Z" fill="white" stroke="black" stroke-width="0.287431" stroke-miterlimit="22.9256"/>
<path fill-rule="evenodd" clip-rule="evenodd" d="M10.7877 21.3617H9.61331C7.13708 21.3617 5.72828 18.4898 7.24265 16.5152C8.74548 14.5561 10.4742 12.7781 12.3884 11.2244C13.8828 10.0112 15.4865 8.93811 17.1746 8.01988V7.27513H6.90248C4.92428 7.27513 3.31925 5.65978 3.31925 3.66886C3.31925 1.67793 4.92428 0.0623779 6.90248 0.0623779H26.1833C28.1615 0.0623779 29.7667 1.67793 29.7667 3.66886C29.7667 5.65978 28.1615 7.27513 26.1833 7.27513H24.3357V8.22138C25.9115 9.18602 27.4145 10.2697 28.8287 11.4617C30.6113 12.964 32.2501 14.6358 33.7187 16.4496C35.308 18.4125 33.9157 21.3619 31.3999 21.3619H29.9554L39.6235 50.6017L163.94 50.7936L163.941 57.9377L41.9783 57.75L41.9838 57.7668L33.4167 57.7406H29.0559V57.7274L0.0859375 57.6392L0.922945 54.8021C4.21113 43.6553 7.49952 32.5089 10.7873 21.3619L10.7877 21.3617Z" fill="#FEFEFE" stroke="black" stroke-width="0.755567" stroke-miterlimit="22.9256"/>
<path d="M3.03125 55.4323C6.59917 43.3371 10.1675 31.2417 13.7352 19.1462C17.2192 19.1462 21.1879 19.1462 26.9009 19.1462L38.0323 52.8121L161.451 52.9658L161.452 55.6786C102.251 55.5274 62.2067 55.6124 3.03145 55.4321L3.03125 55.4323Z" fill="#FFDA00"/>
<path d="M5.52364 3.66868C5.52364 2.90052 6.14235 2.27783 6.90559 2.27783H26.1864C26.9496 2.27783 27.5683 2.90052 27.5683 3.66868C27.5683 4.43684 26.9496 5.05953 26.1864 5.05953H22.1375V9.49239C23.7354 10.3938 25.5528 11.5876 27.4186 13.1601C29.3253 14.7668 30.8378 16.3946 32.0154 17.8489C32.4363 18.3687 32.0693 19.1461 31.4031 19.1461H9.61603C8.96153 19.1461 8.58816 18.3903 8.98797 17.8691C10.1373 16.3708 11.7014 14.6306 13.7732 12.9488C15.7767 11.3224 17.729 10.1779 19.3788 9.37353V5.05953H6.90539C6.14215 5.05953 5.52344 4.43684 5.52344 3.66868H5.52364Z" fill="black"/>
<path d="M12.4768 50.8162V25.9258H21.5566C22.8286 25.9258 24.006 26.0564 25.0897 26.317C26.1729 26.5781 27.0976 26.9747 27.8632 27.5081C28.6282 28.0414 29.2288 28.6993 29.6648 29.4816C30.1004 30.2638 30.3185 31.1884 30.3185 32.2551C30.3185 33.5829 29.9414 34.7085 29.1881 35.6331C28.5753 36.3921 27.7747 36.9965 26.7856 37.4465C27.4685 37.6837 28.1161 37.992 28.7288 38.371C29.6473 38.9398 30.3772 39.675 30.9192 40.5754C31.4607 41.4766 31.7317 42.5667 31.7317 43.8467C31.7317 45.5063 31.3371 46.8397 30.5482 47.847C29.7587 48.8549 28.6457 49.6016 27.2093 50.0872C25.7725 50.5733 24.0766 50.8162 22.1218 50.8162H12.4766H12.4768ZM18.4124 35.8108H20.8854C21.5683 35.8108 22.1511 35.7041 22.6344 35.4908C23.1169 35.2775 23.4877 34.9698 23.7471 34.5664C24.006 34.1636 24.1358 33.6896 24.1358 33.1441C24.1358 32.3148 23.8531 31.6807 23.2879 31.2419C22.7226 30.8035 21.9216 30.5842 20.8854 30.5842H18.4124V35.8112V35.8108ZM18.4124 46.158H21.4506C22.228 46.158 22.9225 46.0576 23.5352 45.8557C24.1473 45.6546 24.6358 45.3168 25.0015 44.8424C25.3665 44.3684 25.549 43.7401 25.549 42.9577C25.549 42.4127 25.443 41.9564 25.2311 41.5887C25.0191 41.2213 24.7305 40.9192 24.3654 40.6819C24 40.4453 23.5644 40.2729 23.0582 40.1662C22.5513 40.0596 22.0161 40.0063 21.4506 40.0063H18.4124V46.1578V46.158Z" fill="black"/>
<path d="M24.1551 19.1461C23.9137 21.1863 22.1892 22.7682 20.0971 22.7682C18.0049 22.7682 16.2802 21.1863 16.0391 19.1461H24.1552H24.1551Z" fill="white"/>
</g>
<defs>
<clipPath id="clip0_1845_1246">
<rect width="164" height="58" fill="white"/>
</clipPath>
</defs>
</svg>
